<svg width="202" height="202" viewBox="0 0 202 202" fill="none" xmlns="http://www.w3.org/2000/svg">
<circle cx="101" cy="101" r="87.7438" fill="url(#paint0_linear_1_13)" stroke="#15161A" stroke-width="26.5125"/>
<path d="M101 104C89.546 103.99 78.2653 106.816 68.1512 112.227C58.0371 117.638 49.3998 125.47 43 135.032C49.4193 144.571 58.0623 152.38 68.1732 157.779C78.2841 163.177 89.5549 166 101 166C112.445 166 123.716 163.177 133.827 157.779C143.938 152.38 152.581 144.571 159 135.032C152.604 125.467 143.967 117.633 133.852 112.221C123.737 106.809 112.455 103.986 101 104Z" fill="#E8E8EA"/>
<path d="M101 101C114.255 101 125 90.4787 125 77.5C125 64.5213 114.255 54 101 54C87.7452 54 77 64.5213 77 77.5C77 90.4787 87.7452 101 101 101Z" fill="#E8E8EA"/>
<defs>
<linearGradient id="paint0_linear_1_13" x1="18.7037" y1="167.086" x2="188.284" y2="42.3951" gradientUnits="userSpaceOnUse">
<stop stop-color="#F14A7C"/>
<stop offset="1" stop-color="#F0B42D"/>
</linearGradient>
</defs>
</svg>
